
<svg id="svg" version="1.1" xmlns="http://www.w3.org/2000/svg" xmlns:xlink="http://www.w3.org/1999/xlink" width="400" height="400" viewBox="0, 0, 400,400"><g id="svgg"><path id="path0" d="M320.729 50.288 C 313.976 57.112,297.957 73.242,285.132 86.133 C 272.306 99.023,261.527 110.135,261.177 110.826 C 260.595 111.976,260.550 118.543,260.642 188.434 L 260.742 264.787 261.548 265.865 C 263.732 268.791,260.332 268.542,299.736 268.664 C 319.110 268.724,335.343 268.681,335.810 268.567 C 336.998 268.277,338.966 266.542,339.754 265.090 C 340.471 263.769,340.545 42.676,339.829 40.786 C 339.187 39.091,337.201 37.891,335.029 37.886 L 333.008 37.882 320.729 50.288 M194.141 123.835 C 192.744 123.947,191.250 124.243,190.820 124.493 C 188.987 125.559,163.688 151.416,163.104 152.819 C 162.569 154.106,162.501 160.509,162.506 209.069 L 162.513 263.867 163.393 265.422 C 163.887 266.293,164.957 267.363,165.828 267.857 L 167.383 268.737 204.297 268.737 L 241.211 268.737 242.739 267.865 C 243.641 267.349,244.601 266.353,245.083 265.430 L 245.898 263.867 245.898 196.484 L 245.898 129.102 245.020 127.458 C 244.460 126.411,243.503 125.440,242.379 124.782 L 240.616 123.749 218.648 123.691 C 206.565 123.659,195.537 123.724,194.141 123.835 " stroke="none" fill="#0898dc" fill-rule="evenodd"></path><path id="path1" d="M95.117 171.825 C 92.618 172.966,64.980 201.402,64.662 203.158 C 64.530 203.892,64.472 218.115,64.535 234.766 L 64.648 265.039 65.586 266.354 C 67.671 269.277,65.423 269.122,105.932 269.132 C 144.184 269.141,143.407 269.178,145.458 267.260 C 147.769 265.100,147.656 267.518,147.656 220.117 C 147.656 172.716,147.769 175.135,145.458 172.974 C 143.448 171.095,143.428 171.093,119.408 171.102 C 98.237 171.110,96.573 171.160,95.117 171.825 M130.005 293.543 C 110.017 299.048,111.135 333.762,131.419 337.467 C 145.958 340.123,155.834 331.281,155.854 315.590 C 155.874 299.433,144.340 289.595,130.005 293.543 M212.500 293.679 C 205.732 295.925,202.198 301.007,202.878 307.515 C 203.539 313.842,206.614 316.332,216.534 318.573 C 225.849 320.679,227.736 321.750,227.733 324.932 C 227.726 331.706,212.773 331.868,211.077 325.113 C 210.829 324.123,210.800 324.116,207.893 324.361 C 206.280 324.498,204.372 324.609,203.652 324.609 C 199.988 324.609,204.217 332.766,209.281 335.465 C 221.446 341.949,237.091 336.048,237.106 324.972 C 237.116 317.074,233.974 314.255,222.277 311.668 C 213.953 309.827,211.191 307.978,211.906 304.724 C 213.145 299.083,224.613 299.428,226.994 305.178 C 227.474 306.337,227.500 306.345,229.812 306.103 C 231.096 305.969,233.090 305.859,234.244 305.859 C 236.683 305.859,236.708 305.678,234.856 301.452 C 231.866 294.629,221.012 290.855,212.500 293.679 M64.453 315.234 L 64.453 337.109 68.811 337.109 L 73.169 337.109 72.958 321.582 C 72.842 313.042,72.845 306.318,72.965 306.641 C 73.085 306.963,75.323 313.906,77.939 322.070 L 82.695 336.914 86.741 336.914 L 90.787 336.914 92.458 331.641 C 93.376 328.740,95.480 321.973,97.132 316.602 C 100.541 305.517,100.716 305.130,100.536 309.061 C 100.464 310.630,100.334 317.583,100.247 324.512 L 100.088 337.109 104.536 337.109 L 108.984 337.109 108.984 315.234 L 108.984 293.359 102.637 293.366 L 96.289 293.373 92.250 307.207 C 90.029 314.816,87.946 321.944,87.623 323.048 C 87.299 324.152,86.976 324.997,86.905 324.925 C 86.833 324.854,85.168 319.436,83.204 312.886 C 81.240 306.336,79.104 299.263,78.458 297.168 L 77.283 293.359 70.868 293.359 L 64.453 293.359 64.453 315.234 M161.719 315.234 L 161.719 337.197 171.387 337.009 C 183.794 336.768,187.195 335.860,192.050 331.495 C 200.029 324.321,200.098 307.141,192.180 299.226 C 187.638 294.685,184.111 293.707,171.387 293.460 L 161.719 293.272 161.719 315.234 M245.476 293.738 C 243.202 294.658,241.740 298.048,242.554 300.513 C 244.130 305.289,251.438 305.204,252.733 300.395 C 253.923 295.976,249.644 292.051,245.476 293.738 M258.594 293.478 C 258.594 293.597,267.519 318.675,271.827 330.664 L 274.074 336.914 279.558 337.022 L 285.041 337.130 289.062 325.303 C 291.273 318.799,294.639 309.004,296.541 303.538 C 298.443 298.071,300.000 293.545,300.000 293.479 C 300.000 293.413,297.664 293.359,294.808 293.359 L 289.617 293.359 288.965 295.801 C 288.098 299.050,279.713 326.276,279.520 326.470 C 279.436 326.553,279.249 326.213,279.103 325.713 C 278.957 325.213,277.281 319.883,275.378 313.867 C 273.475 307.852,271.260 300.776,270.457 298.145 L 268.996 293.359 263.795 293.359 C 260.934 293.359,258.594 293.413,258.594 293.478 M305.078 315.179 L 305.078 337.109 309.570 337.109 L 314.063 337.109 314.063 329.492 L 314.063 321.875 317.343 321.875 L 320.624 321.875 325.050 329.492 L 329.476 337.109 334.860 337.109 L 340.244 337.109 339.200 335.449 C 338.626 334.536,336.339 330.931,334.117 327.439 C 329.498 320.176,329.668 320.653,331.400 319.827 C 338.711 316.341,340.224 303.535,333.990 297.903 C 330.100 294.389,327.422 293.766,314.941 293.477 L 305.078 293.248 305.078 315.179 M140.143 302.297 C 145.786 305.176,148.195 315.924,144.880 323.431 C 140.805 332.658,127.980 330.784,125.805 320.643 C 123.064 307.863,131.042 297.654,140.143 302.297 M181.168 302.588 C 187.423 304.307,190.449 313.655,187.401 321.843 C 185.537 326.852,181.805 328.906,174.568 328.906 L 170.703 328.906 170.703 315.222 L 170.703 301.538 174.902 301.779 C 177.212 301.912,180.032 302.276,181.168 302.588 M325.346 302.539 C 329.053 304.728,329.081 311.279,325.393 313.445 C 324.372 314.044,323.114 314.230,319.090 314.375 L 314.063 314.557 314.063 308.020 L 314.063 301.484 319.043 301.621 C 323.159 301.734,324.253 301.893,325.346 302.539 M243.359 322.534 L 243.359 337.109 247.852 337.109 L 252.344 337.109 252.344 322.451 L 252.344 307.793 247.852 307.876 L 243.359 307.959 243.359 322.534 " stroke="none" fill="#042957" fill-rule="evenodd"></path><path id="path2" d="M0.000 200.000 L 0.000 400.000 200.000 400.000 L 400.000 400.000 400.000 200.000 L 400.000 0.000 200.000 0.000 L 0.000 0.000 0.000 200.000 M338.093 38.445 C 340.368 39.936,340.201 31.360,340.320 152.818 L 340.430 264.313 339.488 265.688 C 338.971 266.444,337.929 267.486,337.173 268.004 L 335.800 268.945 301.396 269.062 C 264.975 269.185,265.111 269.191,262.894 267.326 C 260.359 265.192,260.547 271.571,260.547 187.745 L 260.547 111.389 261.816 109.792 C 263.984 107.066,331.365 39.248,332.813 38.336 C 334.367 37.357,336.499 37.401,338.093 38.445 M240.812 123.873 C 242.803 124.426,245.105 126.729,245.658 128.720 C 246.517 131.812,246.229 263.146,245.359 265.039 C 243.364 269.384,245.797 269.141,204.297 269.141 C 163.159 269.141,165.226 269.340,163.049 265.156 C 162.046 263.228,162.250 154.353,163.260 152.426 C 164.559 149.947,190.184 124.311,191.797 123.876 C 193.814 123.333,238.854 123.330,240.812 123.873 M140.901 171.089 C 143.088 171.304,144.026 171.602,145.101 172.422 C 147.860 174.527,147.677 170.956,147.563 220.400 L 147.461 265.039 146.549 266.317 C 144.404 269.325,147.067 269.141,105.856 269.141 C 65.565 269.141,67.971 269.282,65.882 266.799 C 65.327 266.140,64.692 264.947,64.470 264.148 C 63.898 262.086,63.918 205.037,64.492 202.930 C 64.851 201.614,67.212 199.063,79.432 186.788 C 94.534 171.619,94.646 171.517,96.875 171.058 C 98.636 170.696,137.189 170.723,140.901 171.089 M139.844 292.980 C 160.164 296.149,162.233 331.015,142.466 337.175 C 128.542 341.514,116.413 332.245,115.739 316.748 C 115.038 300.631,125.125 290.685,139.844 292.980 M226.174 293.727 C 230.714 295.143,234.366 298.791,235.800 303.341 C 236.642 306.010,236.783 305.913,231.687 306.155 L 227.399 306.358 226.839 305.016 C 224.387 299.149,212.109 299.428,212.109 305.352 C 212.109 308.445,213.977 309.627,221.588 311.346 C 233.310 313.994,236.514 316.474,237.345 323.546 C 238.724 335.278,221.934 342.496,209.242 335.627 C 203.451 332.492,200.185 324.977,204.395 324.472 C 208.312 324.001,211.328 324.155,211.328 324.824 C 211.328 328.477,217.613 330.764,224.091 329.467 C 226.737 328.937,228.282 325.895,227.210 323.328 C 226.386 321.356,224.507 320.518,217.251 318.883 C 205.687 316.277,202.917 313.794,202.942 306.055 C 202.976 295.628,213.822 289.873,226.174 293.727 M77.735 293.848 C 77.735 294.116,79.807 301.223,82.339 309.641 L 86.943 324.946 88.796 318.625 C 89.816 315.149,91.908 308.042,93.447 302.832 L 96.244 293.359 102.810 293.359 L 109.375 293.359 109.375 315.234 L 109.375 337.109 104.628 337.109 L 99.881 337.109 100.117 321.973 C 100.247 313.647,100.212 307.275,100.040 307.813 C 99.867 308.350,97.740 315.161,95.312 322.949 L 90.898 337.109 86.755 337.109 L 82.612 337.109 77.974 322.559 C 75.424 314.556,73.228 307.800,73.094 307.546 C 72.961 307.292,72.893 308.698,72.944 310.671 C 72.995 312.644,73.084 319.399,73.142 325.684 L 73.247 337.109 68.655 337.109 L 64.063 337.109 64.063 315.234 L 64.063 293.359 70.898 293.359 C 76.106 293.359,77.735 293.476,77.735 293.848 M183.984 294.312 C 193.354 297.295,198.026 304.320,198.041 315.445 C 198.062 331.081,190.453 337.087,170.605 337.103 L 161.719 337.109 161.719 315.196 L 161.719 293.282 171.777 293.456 C 179.930 293.596,182.243 293.758,183.984 294.312 M250.765 294.382 C 254.036 297.135,253.819 301.370,250.297 303.518 C 245.804 306.257,240.331 300.816,242.792 296.057 C 244.207 293.322,248.447 292.432,250.765 294.382 M270.562 298.047 C 271.302 300.518,273.496 307.549,275.437 313.672 C 277.378 319.795,279.085 325.199,279.229 325.682 C 279.454 326.432,285.419 307.924,288.934 295.567 L 289.562 293.359 294.781 293.359 C 297.651 293.359,300.000 293.465,300.000 293.595 C 300.000 293.725,296.859 302.997,293.020 314.201 C 289.182 325.404,285.871 335.098,285.664 335.742 L 285.287 336.914 279.629 337.022 L 273.970 337.129 272.761 333.701 C 271.484 330.081,265.495 313.290,261.169 301.201 C 259.753 297.242,258.594 293.854,258.594 293.670 C 258.594 293.487,260.984 293.386,263.905 293.446 L 269.217 293.555 270.562 298.047 M327.539 294.224 C 336.113 296.765,340.245 305.081,337.105 313.477 C 336.130 316.084,332.851 319.701,331.053 320.153 C 329.752 320.479,329.536 320.026,335.324 329.112 C 338.025 333.352,340.234 336.890,340.234 336.976 C 340.234 337.061,337.753 337.082,334.720 337.022 L 329.206 336.914 324.864 329.395 L 320.522 321.875 317.292 321.875 L 314.063 321.875 314.063 329.492 L 314.063 337.109 309.570 337.109 L 305.078 337.109 305.078 315.196 L 305.078 293.283 315.332 293.464 C 322.801 293.596,326.116 293.802,327.539 294.224 M131.197 302.654 C 122.711 307.073,123.810 326.413,132.687 328.878 C 140.629 331.083,146.094 325.681,146.094 315.625 C 146.094 304.626,139.102 298.537,131.197 302.654 M314.063 307.753 L 314.063 314.063 318.848 314.062 C 325.979 314.061,327.930 312.760,327.930 308.008 C 327.930 303.327,326.067 302.011,318.968 301.676 L 314.063 301.444 314.063 307.753 M170.703 315.377 L 170.703 328.906 173.756 328.906 C 184.461 328.906,188.645 324.652,188.218 314.201 C 187.859 305.396,184.782 302.459,175.488 302.056 L 170.703 301.848 170.703 315.377 M252.344 322.461 L 252.344 337.109 247.656 337.109 L 242.969 337.109 242.969 322.461 L 242.969 307.813 247.656 307.813 L 252.344 307.813 252.344 322.461 " stroke="none" fill="#f8f8f8" fill-rule="evenodd"></path><path id="path3" d="M334.473 37.769 C 334.849 37.868,335.464 37.868,335.840 37.769 C 336.216 37.671,335.908 37.591,335.156 37.591 C 334.404 37.591,334.097 37.671,334.473 37.769 M301.949 69.043 L 295.508 75.586 302.051 69.145 C 305.649 65.603,308.594 62.658,308.594 62.602 C 308.594 62.323,307.933 62.964,301.949 69.043 M340.325 123.828 C 340.325 124.580,340.405 124.888,340.504 124.512 C 340.602 124.136,340.602 123.521,340.504 123.145 C 340.405 122.769,340.325 123.076,340.325 123.828 M193.853 123.718 C 194.447 123.808,195.326 123.805,195.806 123.712 C 196.287 123.620,195.801 123.546,194.727 123.549 C 193.652 123.552,193.259 123.628,193.853 123.718 M207.152 123.730 C 209.903 123.797,214.298 123.797,216.917 123.729 C 219.537 123.662,217.285 123.607,211.914 123.607 C 206.543 123.607,204.400 123.662,207.152 123.730 M227.051 123.707 C 227.427 123.805,228.042 123.805,228.418 123.707 C 228.794 123.609,228.486 123.528,227.734 123.528 C 226.982 123.528,226.675 123.609,227.051 123.707 M232.531 123.725 C 233.558 123.806,235.140 123.805,236.047 123.723 C 236.954 123.641,236.113 123.575,234.180 123.576 C 232.246 123.577,231.504 123.644,232.531 123.725 M185.150 129.590 L 180.664 134.180 185.254 129.694 C 189.517 125.527,190.021 125.000,189.740 125.000 C 189.683 125.000,187.617 127.065,185.150 129.590 M340.424 176.758 C 340.424 202.969,340.470 213.634,340.527 200.458 C 340.584 187.282,340.584 165.837,340.527 152.802 C 340.470 139.767,340.424 150.547,340.424 176.758 M177.529 137.207 L 174.805 140.039 177.637 137.315 C 179.194 135.817,180.469 134.543,180.469 134.483 C 180.469 134.197,180.059 134.577,177.529 137.207 M107.351 170.996 C 112.576 171.057,121.014 171.057,126.101 170.996 C 131.189 170.934,126.914 170.884,116.602 170.884 C 106.289 170.884,102.126 170.934,107.351 170.996 M186.035 269.043 C 196.079 269.101,212.515 269.101,222.559 269.043 C 232.603 268.985,224.385 268.937,204.297 268.937 C 184.209 268.937,175.991 268.985,186.035 269.043 M283.330 269.043 C 292.961 269.101,308.605 269.101,318.096 269.043 C 327.586 268.985,319.707 268.937,300.586 268.937 C 281.465 268.937,273.700 268.985,283.330 269.043 M109.167 315.039 C 109.167 326.855,109.216 331.746,109.277 325.907 C 109.338 320.067,109.338 310.399,109.277 304.422 C 109.216 298.445,109.167 303.223,109.167 315.039 M337.981 307.813 C 337.981 308.564,338.062 308.872,338.160 308.496 C 338.258 308.120,338.258 307.505,338.160 307.129 C 338.062 306.753,337.981 307.061,337.981 307.813 M315.734 314.350 C 316.761 314.431,318.343 314.430,319.250 314.348 C 320.157 314.266,319.316 314.200,317.383 314.201 C 315.449 314.202,314.707 314.269,315.734 314.350 M100.128 322.070 C 100.130 323.574,100.201 324.142,100.285 323.331 C 100.370 322.521,100.368 321.290,100.282 320.597 C 100.196 319.903,100.126 320.566,100.128 322.070 M73.138 335.156 C 73.138 335.908,73.218 336.216,73.316 335.840 C 73.414 335.464,73.414 334.849,73.316 334.473 C 73.218 334.097,73.138 334.404,73.138 335.156 " stroke="none" fill="#96c6dc" fill-rule="evenodd"></path><path id="path4" d="M72.847 193.457 L 66.211 200.195 72.949 193.559 C 76.655 189.909,79.688 186.877,79.688 186.821 C 79.688 186.542,79.013 187.197,72.847 193.457 M64.248 233.594 C 64.248 249.814,64.296 256.450,64.355 248.340 C 64.414 240.229,64.414 226.958,64.355 218.848 C 64.296 210.737,64.248 217.373,64.248 233.594 M135.059 292.854 C 135.542 292.947,136.333 292.947,136.816 292.854 C 137.300 292.761,136.904 292.685,135.938 292.685 C 134.971 292.685,134.575 292.761,135.059 292.854 M218.072 292.858 C 218.666 292.948,219.544 292.946,220.025 292.853 C 220.505 292.760,220.020 292.687,218.945 292.690 C 217.871 292.693,217.478 292.769,218.072 292.858 M64.245 315.234 C 64.245 327.373,64.295 332.339,64.355 326.270 C 64.416 320.200,64.416 310.269,64.355 304.199 C 64.295 298.130,64.245 303.096,64.245 315.234 M171.387 301.838 C 171.870 301.931,172.661 301.931,173.145 301.838 C 173.628 301.745,173.232 301.669,172.266 301.669 C 171.299 301.669,170.903 301.745,171.387 301.838 M243.141 318.945 C 243.141 325.176,243.195 327.670,243.261 324.488 C 243.327 321.306,243.327 316.208,243.261 313.160 C 243.195 310.111,243.141 312.715,243.141 318.945 M72.793 311.328 C 72.793 313.154,72.860 313.901,72.942 312.988 C 73.025 312.075,73.025 310.581,72.942 309.668 C 72.860 308.755,72.793 309.502,72.793 311.328 M146.205 315.820 C 146.208 316.895,146.284 317.288,146.374 316.694 C 146.464 316.100,146.461 315.221,146.369 314.741 C 146.276 314.260,146.203 314.746,146.205 315.820 M155.971 315.820 C 155.974 316.895,156.050 317.288,156.140 316.694 C 156.229 316.100,156.227 315.221,156.134 314.741 C 156.042 314.260,155.968 314.746,155.971 315.820 M237.216 325.000 C 237.216 325.967,237.292 326.362,237.385 325.879 C 237.478 325.396,237.478 324.604,237.385 324.121 C 237.292 323.638,237.216 324.033,237.216 325.000 M100.134 328.320 C 100.135 330.039,100.204 330.694,100.287 329.775 C 100.369 328.856,100.368 327.450,100.284 326.650 C 100.200 325.850,100.132 326.602,100.134 328.320 M243.086 335.156 C 243.086 336.338,243.159 336.821,243.249 336.230 C 243.338 335.640,243.338 334.673,243.249 334.082 C 243.159 333.491,243.086 333.975,243.086 335.156 " stroke="none" fill="#8494ae" fill-rule="evenodd"></path></g></svg>
